# xmcd
#
# Track frame offsets: 
#        150
#        29945
#        63456
#        81974
#        128904
#        176126
#        222222
#
# Disc length: 3774 seconds
#
# Revision: 1
# Processed by: cddbd v1.5.2PL0 Copyright (c) Steve Scherf et al.
# Submitted via: ExactAudioCopy v0.99pb3
#
DISCID=6a0ebc07
DTITLE=Sing Sing Penelope - We Remember Krzeselko
DYEAR=2008
DGENRE=Jazz
TTITLE0=No Title
TTITLE1=James Bond
TTITLE2=Talkin'
TTITLE3=Farewell Dutch Herring
TTITLE4=It Has Just Begun, Doctor
TTITLE5=Third Man On The Moon
TTITLE6=We Remember Krzeselko (video)
EXTD=YEAR: 2008
EXTT0=
EXTT1=
EXTT2=
EXTT3=
EXTT4=
EXTT5=
EXTT6=
PLAYORDER=
